<svg xmlns="http://www.w3.org/2000/svg" viewBox="0 0 394.9 394.9">
  <path fill="#0076bd" d="M5.8 150a197.4 197.4 0 1 1 383.3 94.8A197.4 197.4 0 0 1 5.8 150z"/>
  <path fill="#ffd203" d="M184 68.4l13.3-9.6 13.1 9.6-5-15.5 13.2-9.6h-16.3l-5-15.5-5 15.5h-16.4L189 53l-5 15.5zm-76.2 20.4l13.2-9.6 13.2 9.6-5-15.6 13.2-9.6H126l-5-15.5-5.1 15.5H99.6l13.3 9.6-5 15.6zm-55.7 55.7l13.2-9.6 13.2 9.5-5-15.5 13.2-9.6H70.3l-5-15.5-5 15.5H43.8L57 129l-5 15.6zm221.2-96.2l-5 15.6H252l13.2 9.6-5 15.5 13.2-9.6 13.2 9.6-5-15.5 13.1-9.7h-16.3l-5.1-15.4zm40.3 95l13.2-9.6 13.2 9.6-5-15.5 13.2-9.7h-16.3l-5.1-15.5-5 15.6h-16.4l13.3 9.6-5 15.5zm55.6 51.3H353l-5-15.6-5.1 15.5h-16.4l13.2 9.6-5.1 15.5 13.3-9.6 13.1 9.7-5-15.6 13.3-9.5zM333.1 268l-5-15.5L323 268h-16.3l13.2 9.6-5 15.5 13.2-9.6 13.2 9.6-5-15.5 13.1-9.7h-16.3zm-129.5 76.5l-5-15.5-5.1 15.6h-16.3l13.2 9.6-5 15.5 13.2-9.6 13.3 9.6-5.1-15.6 13.1-9.6h-16.3zm-76.3-20.1l-5-15.5-5.1 15.5h-16.3L114 334l-5 15.6 13.2-9.7 13.2 9.6-5-15.5 13.1-9.6h-16.3zm150.2-.4l-5-15.5-5.1 15.5H251l13.2 9.6-5.1 15.5 13.3-9.6 13.2 9.7-5-15.6 13.2-9.6h-16.3zM46.7 210.4l13.3 9.5-5.1-15.5 13.2-9.6H51.8l-5.2-15.5-5 15.5-16.3.1 13.3 9.6-5 15.5 13.1-9.6zm24.8 57.5l-5-15.6-5 15.6H45l13.2 9.6-5 15.5 13.2-9.6 13.2 9.6-5-15.5 13.1-9.6H71.5z"/>
</svg>
