<svg xmlns="http://www.w3.org/2000/svg" viewBox="0 0 870.1 541.8">
  <path fill="#731012" d="M268.1 58.5c2.1-3.5-3.6-5.3-8-5.4-6.9.1-14.2 2.2-17.8 7.8-9.9 14.4-25 57.2-26.9 62.5-2.3 7.1-6.8 21.3-9.9 35.2a141 141 0 0 0-3.2 19.7c-.2 3-.2 5.7 0 8a16 16 0 0 0 1.5 5.9c1.9 3.6 5 5.6 10 7.6 4.2 1.2 11-1 15.8-3.4a179 179 0 0 0 37.8-26.9c4.1-3.7 6.8-5.6 4.7-8.6-1.4-2-5.4.5-9.6 3.3-5.1 3.4-28.6 19.5-32.2 14.4-5.6-7.2 9-53.1 11.7-61.4a308.8 308.8 0 0 1 26-58.7zm114.4 18c-2.7-4.9-21-14.4-43.3 38.2 2.8-11.7 3.1-12.6 6-22.5 1.6-6-2-9-5.6-10.5-2.8-1-6.2-1.4-11 1.3-7 4.1-15.3 53.9-17.8 76 .4 1.2-.4 2.4-.2 3.6-.7 8.4-5.6 24 4 40.4 4 7 8.7 9.8 15.9 10.9l.6-.1.5-.4c.3-.3.6-.7.7-1.2.2-1 0-2-1-2.7-2.9-1.7-3.6-3.4-4.9-6.4-4.5-10.5.5-28.4 2.7-40.4a214 214 0 0 1 11.6-40.5c7.8-20 23.5-39.8 24.4-23.1.5 7.9-4.8 39.5-23.7 51.6a12.3 12.3 0 0 1-7.5 2.3l-.9.1c-.5.2.2 3 1.4 4.1 0 0 5.3 6.6 21.6-3.5 26.7-16.7 35.4-60.6 26.5-77.2z"/>
  <path fill="#cceaea" d="M8 281.3c-16.6 92.8 99.2 163.4 186.7 147 0 0 18.2 90.4 143.1 82.7 125-7.8 139.3-103 138-112-1.3-9.2 22.5-13 9.5 22.6 0 0 54.3 51.7 127.8 30 73.6-21.9 104.5-80 122-126 0 0 9.8 4.4 29.4 1.1 43.6-7.3 109.5-41.3 97.2-112.8-9.8-57.7-36.7-68.6-53.1-78.3-21.5-12.7-62.3-1-72.2 14 0 0-12.9-47-80.5-52.5-37.6-3.1-66.6 13-66.6 13S475.7 19.3 345 20.4c-125.8 1-162.8 71-190.6 115.2-15.7 4-27.1 6.2-38 21.7-14 19.8-32.8 30-32.8 30s-64 30.4-75.4 94z"/>
  <path fill="#cceaea" d="M8.3 280.7C-8.4 373.5 107.4 444 195 427.7c0 0 18.2 90.4 143 82.6 125-7.8 139.3-102.9 138-112-1.2-9.1 22.6-13 9.5 22.7 0 0 54.3 51.7 127.9 29.9C686.9 429 717.8 371 735.3 325c0 0 9.9 4.4 29.5 1 43.5-7.3 109.4-41.2 97.2-112.7-9.9-57.7-36.8-68.6-53.2-78.3-21.5-12.8-62.2-1-72.2 14 0 0-12.8-47-80.4-52.5-37.7-3.1-66.6 13-66.6 13S476 18.7 345 19.8c-125.7 1-162.7 71-190.5 115.2-15.8 4-27.2 6.1-38.1 21.7-13.9 19.7-32.8 29.9-32.8 29.9s-64 30.5-75.4 94z"/>
  <path fill="#fff" d="M191.5 74.1S248.8 4.9 379 4.9c95.3 0 200.7 38.7 223.6 83.2 7.6 14.8 1.3 23 21.7 14a96.4 96.4 0 0 1 94.1 12c20.2 15 4 27 21.5 14.3 33.2-23.9 113.6-1.5 111.3 66.1-2.6 78.2-68.2 119.3-88.6 120.8 0 0-45.9 10-58.7 6 0 0-39.7 101.9-106 104.5-66.4 2.6-125.2-31.2-146-44.8-39.6-26-55.2 6-75.5 37.8-16.4 25.8-35.8 51.6-73.4 46.5-54.8-7.5-66.4-41.8-67.5-47-8.6-37.6-21.4-47.9-55.1-38.2C48.9 417.8 15.5 331 21.4 262c3.5-40.9 39.8-76.7 82.3-84.8-1.6-18-.5-24.2 5-37.5 6.5-16 21-30 49.7-28.5 7.2-13.2 13-21.5 33-37.2z"/>
  <path fill="#82d1dd" d="M805.3 320.7s-36.4 12.6-59 9.6c-13.3-1.8-1 11.4-14.8 38.3-7.1 13.9-41.7 79.3-114.2 91.3S501.6 450.5 493 441c0 0 11-30.2 8.5-41.8-2.4-11.6-11.3-6.2-13.8 9-1.8 10.4-3.4 13.1-6.3 18.9 0 0-30.5 91.3-120.8 96-90.4 4.8-121.2-29.8-156-71.5 0 0 33-24.5 33-61.7 0-20.5-.4-10.8-17.7 20.8s-75.2 37.9-99 33C67 433 1.7 386.4 4.5 302.3c2.2-64.9 36.2-114.5 80.3-128.6 6.5-2 13.7-4.3 20.4-5.2 0 0-18.4-29.8 13.4-53.6 17-12.6 26-10.7 36.4-5 2.4-4.6 18.6-22.2 22.1-26.9C198 54.8 262.8 6.1 374 4.4c110-1.6 199.8 36.1 225.7 81.2 9 16 13.7 18.2 19.3 13 18.4-17.2 108 .7 118.3 26.3 0 0 .7 2.8 23.2-5.9 32.2-9.3 72 20.4 86.5 48.2 24.4 47.1 21 126.5-41.6 153.5zM825 133c-42.7-36.8-84.3-15.1-84.3-15.1C677.2 72.4 615 90.3 615 90.3 588.5 37 468.7-16.8 320.4 5c-109.2 16-166 97.9-166 97.9s-21.7-8.3-45 13.2c-15.2 14-16 35-13 48-16.6 5.1-37.3 15-56.9 34-42.3 41-59.7 134.4-5.9 205 53.8 70.6 157 50.1 157 50.1s13 25.5 41.9 51.6c37.8 34 98 43.2 143.6 33.2 78.4-17.2 113.2-90.3 113.2-90.3 49.3 28.6 117.2 30.1 170.4 7.2 84.7-36.5 96.1-109.3 96.1-109.3 53.5 1.6 91.7-39.4 100.8-56.6 9.1-17.2 37.4-96.4-31.5-155.9z"/>
  <path fill="#1870b8" d="M203.8 263zm65.3 96.3l-65.3-96.2 65.3 96.2zm-4.8 1l1.6.1 1.8-4.7.3-.7.5-1.2.5-1.1 1.5-3 2.2-4a20.8 20.8 0 0 1-22-6.1c.7 1 1.2 2.3 1.7 3.5l.8 2.3 2 3.8a113.8 113.8 0 0 0 6.4 10l1.3.8 1.4.2zm1.3.4l-1.3-.5 1.3.5zm-58.3 10.5v.3l.2-2v-.1l.2-2.1v-.3a43 43 0 0 1 2.1-11l1.2-3.7 1.4-6.6a20.8 20.8 0 0 1 36-9.4c-.7-1.2-1.4-2.5-1.8-4l-1.3-3.6a59.5 59.5 0 0 1-2.6-7.9c-.4-1.7-.7-3.9-1.3-9.6l-.8-8.5-.2-1.7-.4-2.7-1.1-.5-1.9-.8-3.3-1.4-3.7-.9-15-3.1-.2 1.7-.3 3.2-.2 1-1 6.5v.2l-1.6 9-.2.7-.7 7.2v.5l-.2 1.4v.4l-2.2 14.3-.8 18.7v.8l-.3 2.5.2 2.7v2.7l-.2 6.1zm155.3 11zm-47.6 2.5l4 .1 2.2-.4h.2c-.3-2.7-.4-5.2 0-7.7l.2-3v-3.2l.1-2.3v-5.7l.3-2.4V359l.8-6.7.1-.9.4-3 .1-1 .2-1.2 1.1-13.2.2-6.7v-1.2l.2-1.3a72.4 72.4 0 0 1 2-17.9l1-4.7.1-1.3-2.2-1a64.9 64.9 0 0 0-17-4.6c-.6.5-1.7 1.6-3 3.5l-5 7.3-.2.2a216 216 0 0 0-11.3 17.6 31 31 0 0 0-3 7.6v.4a20.8 20.8 0 0 1 28.2 19l.2 7.8v24.7l.1 2.2zm-100.1 21zm0 .1zm116.5 20.7h-3.2c-1.2 0-2.4-.2-3.6-.4-1.2.2-2.4.4-3.6.4-5 0-9.1-.2-12.3-.7-4.8-.6-9.7-2.2-14.8-5a37.3 37.3 0 0 1-17.5-20 33.7 33.7 0 0 1-10.3 1.4l-2.3-.1-4.6-.6a67.6 67.6 0 0 1-6.6-1.2c-.9 3.7-2.7 7.3-5.5 10.5a32.2 32.2 0 0 1-12.4 8.7c-3.5 1.5-5 2-7 2.5a28 28 0 0 1-5.8.5c-1.8 0-3.8-.2-9.2-1h-4c-4.2.2-8-.9-11.5-2.1a248.7 248.7 0 0 1-9-3.5l-3.3-1.5-2.2-1.3a30 30 0 0 1-11.3-11.1 35.6 35.6 0 0 1-4-14.9v-1.7l-.7-3.6v-.3l-.9-6-.2-3v-2l.3-6-.2-3.1V358l.3-3.8.9-19.4c0-.7 0-1.4.2-2l2.3-16.2.9-8.3c0-1 .2-2 .5-2.9l2.4-14.4c-4-5-5-10.2-5-14 0-4.5 1.3-11.4 7.4-18a33.6 33.6 0 0 1 15.8-9.5l2.7-.7c1.7-.4 3.4-.6 5.1-.6h7.7c2.9.2 6 .6 9.1 1.3l10.9 2 .4.1 11.6 2.4.8.2 5.6 1.4 3 1 5 2 .8.4 1.6.8 4 1.5.5.2c5.4 2.3 10 5.7 13.4 10.2 4-5.3 8.2-9.3 12.8-12.4 6.5-4.4 14-6.6 22.2-6.6a97 97 0 0 1 34.6 8.4l4.7 2.2 1.7 1c8.4 5 12.8 8.8 15.7 13.3a36.2 36.2 0 0 1 4.7 21.8l-.4 5.8c0 .9-.2 1.8-.4 2.8l-.2 1.2-.2 1.2-1.2 5.4-.5 1.6-.2 1.5a56.7 56.7 0 0 0-.3 7.7l-.1 1.4-.2 6.7v1.3l-1.3 14.6c0 .6 0 1.2-.2 1.7l-.5 3.7-.1 1.8-.2 1.2-.7 5.8v7a21 21 0 0 1 0 4l-.4 3.4 1 1.8 2 3 .8 1c2.3 3.8 3.5 8 3.5 12.3 0 9-5.4 20.4-20.4 25l-6 2-1.7.5a44.3 44.3 0 0 1-10.7 1.7z"/>
  <path fill="#1870b8" d="M383 364l.1 19.3 3.5-.6v-2.2a278.2 278.2 0 0 1 .2-14.5v-1.2l.7-12.4c0-.8.1-1.7.3-2.5l2-11-5 .5h-1.5l.1 6.2v10.7l-.5 7.7zm11 58.5zm0 0h.1zm-12.7 3a36 36 0 0 1-15.5-3.4l-.3-.1a27.4 27.4 0 0 1-23.2-23.6 282.9 282.9 0 0 1-1-36.3l.5-9.4v-10l-.3-.5-1-2.7a21 21 0 0 1-3.1-6.8 23 23 0 0 1 2.4-17l-2.8-3.5a26 26 0 0 1-4-8.7 21 21 0 0 1-.4-7.8l.3-2.4V291a34 34 0 0 1 9.6-24.8 39.8 39.8 0 0 1 19.7-10.5l8.4-1.8a58.3 58.3 0 0 1 22.2 1.4 178.6 178.6 0 0 0 7.8 1.3c3.5 0 7.1.8 10.6 2.6a40 40 0 0 1 18.3 17.2 37.8 37.8 0 0 1 5.5 19.2c0 7-2.4 14-7 20 1 1.5 1.7 3.2 2.2 5l1.8 6.3c.5 1.8.7 3.7.7 5.5a42 42 0 0 1-1.2 9.4l-.8 4.4v.4L429 356l-.6 10.6a364.5 364.5 0 0 1-.2 14.8l.2.4 1.2 4c0 .4.2.7.3 1l.3 1.4c.1.6.3 1.1.3 1.7a54.8 54.8 0 0 1 .7 7.2c0 13.8-8.8 24.7-21.8 27.1-2.6.5-5.3.5-8 0l-3.8-.8a129 129 0 0 0-9 1.3c-2.5.4-5 .7-7.3.7z"/>
  <path fill="#1870b8" d="M471.3 280.9h-.1zM446 382.6zm-.4-.4l3 1.8a281.4 281.4 0 0 0 6.7-.7l15.2-.9h.3l8.5-.4a21 21 0 0 1-2.2-.3c-9.5-1.7-19-10-19-24.8v-1l.3-7.4a267.4 267.4 0 0 0 .3-12.2l.3-4.2v-.6l.7-6.5.2-1 3.1-21.4v-.4l.2-.5.6-5.2-1.7-.5c-5.8-1.9-8-2.4-8.6-2.5a49 49 0 0 0-4.5-.2v2.8l-.2 2.9v6.7l-1.6 26.6v.9l-.5 5.2c-1.8 19.5-2 25.7-2 27.7v.4l-.2 10.1v1l-.2 3.3 1.3 1.3zm.8 43.5h-1.8c-2.7 0-5.4-.5-7.9-1.5l-3-1.2-1.2-.6a59 59 0 0 1-20-14.5 33.3 33.3 0 0 1-6.8-11l-1.1-3.2-.1-.3-1-3.4c-.8-2.3-1.1-4.8-1-7.2l.3-7.3v-.3l.2-9.3c0-3.2.3-10 2.2-31l.2-2v-.4l.3-3 1.5-25.6v-5c0-1.8 0-3.6.2-5.3l-.8-3.6-.2-.8-.2-.5a37.4 37.4 0 0 1-2.1-11.1c0-3.5 1.1-20.8 23.9-24.9l1-.2 5.4-.7 2.7-.1H448c5.3 0 9.1.2 12.1.7 2.3.3 5.7 1 14.7 4a627.4 627.4 0 0 0 14 4.2c5.6 1 10.5 4.2 13.6 9a66.6 66.6 0 0 1 4.8 8.8c1.8 4.3 2.7 8.3 2.7 12 0 5.5-1.8 10.8-5.2 15.4l-.2 1.3v1l-1 5.3-2.3 16.1-.3 3.1v.4l-.6 5.9v4.8l.3.1 1.4.2a34 34 0 0 1 11.8 4 61.8 61.8 0 0 1 11 7.8l2 1.8.6.6.5.5a25 25 0 0 1 7 23.7 258.4 258.4 0 0 1 1.4 10c0 4.2 0 17.3-11.1 24.2-1.8 1.2-3.8 2-5.8 2.5l-2.5.7-2.3 1a21 21 0 0 1-7.5 1.6l-11 .4-4 .3h-.6l-18.6.9-14.6.8a417.7 417.7 0 0 1-11.8 1z"/>
  <path fill="#1870b8" d="M670.6 306.2zM504 331.3zm0 0zm160.4 25.9L504 331.4l160.4 25.8zm-43.5 17h.1zm.7.3a122.5 122.5 0 0 1 7 3.2l-3.2-4.3c-.8-1-1.5-2.1-2.1-3.3l-.4-.7-.2-.4-9.7-20.3c-3.5-6.7-6-12.4-6-18.6 0-3.4.8-6.8 2.2-10.3L599 329.9l-1.8 2.9c-1.3 2-3 3.8-4.8 5.3a22 22 0 0 1 1.7 2l7.2 9.6.7 1 3.6 5.5 3 3.7.3.3 3.5 4.4.1.2 1.9 2.4 2 2 .2.4a79.6 79.6 0 0 0 5.2 4.9zm-78.3 6.5l10 3 .7.2a115.2 115.2 0 0 1 0-6.7l.5-6 .1-.7.7-5.9V363a64.8 64.8 0 0 1 1.6-15c1-4.8 3.7-8.9 7.4-11.8-2.9-3-4.9-7-5.6-11.3-.9-5.8-1.3-9.7-1.3-13 0-3 .2-5.1.6-7.2l.1-.4a697 697 0 0 1 1.7-7.5l-2.5-.4c-1.1-.1-2.2-.4-3.3-.7l-9.4-2.6.2 2.1v9.3l.4 7v3.2a201 201 0 0 0 .2 12.6v1.9c-.1.2-.2 1.1-.2 3.2 0 2.7 0 4.7-.3 6.7l-.2 2.2v1.2l-.5 8.6-.6 17.1v1.6l-.6 7.7.3 3.5zm9.7 44.9c-1.2 0-2.4 0-3.7-.2-1.5 0-3-.4-4.3-.8l-3.5-1a926.2 926.2 0 0 1-20.7-6.4c-7-2.7-18.6-10.6-19-32.5l-.4-5.4v-3.9l.6-8.5v-.7l.6-17v-.5l.5-9v-2l.4-3.6v-.6l.1-1.4c0-2.3 0-4.2.2-6a211 211 0 0 0-.2-11.7V313l-.5-7.9v-5.9l-1.2-1.7a29 29 0 0 1-2.5-4.5 58 58 0 0 1-2-5.3c-1-3-1.8-6.3-1.8-10 0-6 2.3-17.2 17.7-23.9a50 50 0 0 1 20-4h3.6l2.5.2 1 .2a153 153 0 0 1 24.1 5.1l2.2.3 1 .1 3.8.8.8.1 4.7 1 1.4.4a27.7 27.7 0 0 1 18.1 15.7l2-2c5.6-6.2 9.3-10.2 11.8-12.7 3.2-3 6.7-5.8 10.4-8.1a32 32 0 0 1 17.3-5.7c2.3 0 4.5.4 8.1 1.1l3.7.7c1.3.2 2.6.6 3.9 1l5.7 1.7 1 .3a22 22 0 0 0 3.5.9 24.3 24.3 0 0 1 17 12.3c2.2 3.7 3.5 8 4 12.5l.3 3a23.9 23.9 0 0 1-5.6 20.7 28.8 28.8 0 0 1-7.8 6l-1.7 2.3-8.7 11.9-1.4 1.8-9 10 3 6.1v.3l5.7 11.9 2.7 3.5.7 1 2.5 3.7.7.4a26 26 0 0 1 11.4 21.5l.2 3.5v1.5c0 5.7-1.8 11.2-5.2 16a48.3 48.3 0 0 1-20.1 15.7 59 59 0 0 1-12.1 3.2 46.2 46.2 0 0 1-25.4-1.7c-1.9-.7-3.7-1.7-5.3-3l-1.4-1-3.3-1.4c-2-.8-4-1.9-6-3.2a25 25 0 0 1-4.1 5.6 36 36 0 0 1-23.4 10.7h-3.3l-5.3-.2h-1.3l-5.5.2H553z"/>
  <path fill="#fff" d="M205.6 132l.1 1.1.3-1a46.6 46.6 0 0 0 .7-6.5v-2l-.8-2.4-3-3a29 29 0 0 0-1.8-2 23 23 0 0 1 3.9 8.9c.4 2 .6 4.2.6 6.9zM195 142.6l10.6-10.7-10.6 10.7zm13.8 6.5l-13.8-6.5 13.8 6.5zm-81.4 2.6l-.6 4.6-.2 2.3v6.4s.1 2 1.6 8.3v.2a37 37 0 0 0 3.2 9c1.1 2.6 1.7 3.5 1.7 3.5a9.7 9.7 0 0 0 2.3 2.3c.2 0 1.5.9 6.2 3-1.2-3-2-6.7-2.1-10.9l-.1-8.3c0-4 .7-8.4 2.3-13.5a172 172 0 0 1 5.4-14.4v-.3l1.1-2.4.4-.8 1.8-3.7.2-.6 2.3-5.4.6-1.3.2-.4c.4-1 1-1.9 1.7-2.8l3.7-5.2c1.9-2.8 3.3-4.7 4.7-6.3a26.4 26.4 0 0 1 11.8-7.5 91 91 0 0 1-10.5-4.3c-2.7-1.3-4.6-1.1-6.5-.9a37 37 0 0 0-8 2c-1 .3-1.8.7-2.5 1.2 0 0-1.2.8-3.4 3.5-1 1.1-3 3.8-5.6 9.4-2.5 5-5.2 12-8.2 20.7l-1.7 5.5-.4 1.2a45 45 0 0 0-1.4 6zM203 204zm-34 34.3h-11.9c-1.6 0-3.1-.1-4.7-.5l-1.7-.4c-8.9-1.6-11-2.1-12.5-2.6-1.9-.5-4.5-1.5-11.7-4.7-7.9-3.4-10.9-5-12.6-6.1a47.6 47.6 0 0 1-15.7-15.3 118.3 118.3 0 0 1-8.2-17.3c-.9-2.4-1.7-5.2-2.5-8.6a81 81 0 0 1-2.6-17.9v-6.3c0-2.6.2-5.3.5-8l.8-5v-.6c.7-4 1.6-7.8 2.6-11l.2-.9.5-1.5 1.9-5.8c3.6-10.6 6.9-19 10-25.6a85.9 85.9 0 0 1 11.3-18 51.8 51.8 0 0 1 25-17.5 96.1 96.1 0 0 1 15.4-3.6 50 50 0 0 1 29.8 4.6c4.2 2 6.2 2.5 6.7 2.6l11.4 2.8 1 .2 4.1 1.3 1.5.4a55 55 0 0 1 25.8 16.8l1.6 1.3c2.7 2 4.8 4.6 6.3 7.7l1.9 4 .4.8a50.2 50.2 0 0 1 4.6 19.5v2.5a72.7 72.7 0 0 1-2.1 17.6l-1.9 6a53.9 53.9 0 0 1-11.4 23.3l-2.4 2.2a31 31 0 0 1 8.2 22 38 38 0 0 1-2.8 13.4c-4.6 12.3-16.9 17.2-21 18.8a7 7 0 0 1-.3.2l-7 2.6-3.1 1a105.1 105.1 0 0 1-23.1 4.6l-10.5 1H169z"/>
  <path fill="#fff" d="M258.2 99.4zm48.5 5.6zm-7.2 34.4zm0 0zm-48.3 52l48.3-52-48.3 52zm.9-2.9a48 48 0 0 1 8.1 6.6l.3.2 7-1.3h.4a247.8 247.8 0 0 1 14-2 22 22 0 0 1-3.4-28l.7-1c1.3-2 3-3.7 4.8-5.1 1.2-2 2.6-3.7 4-5.4l6.8-8.2 2.6-3.7c.7-1 1.4-1.8 2.2-2.6l2.3-2.4 1.6-1.9.7-.8 1.5-1.6a152.4 152.4 0 0 1 14.6-15l-1.8-5a66 66 0 0 1-6.1-5.4l-4.4-.7a34.1 34.1 0 0 0-2.2.2L288 107c4.9 3.4 8.2 8.6 9.1 14.5 1.6 10-4.2 17.3-6 19.7a73.9 73.9 0 0 1-8.6 9 64.5 64.5 0 0 0-4.9 4.9 490.5 490.5 0 0 0-23.2 29.5l-2.3 3.8zm7.5 48.8a38.8 38.8 0 0 1-20.4-5.8c-2-1.3-4.2-3-7-5.7l-2.8-2.4-3-1.9c-5.3-3-9-6.4-11.6-10.5a35.1 35.1 0 0 1-4.8-13.3l-.5-3.5-.2-3.1v-.7c0-5 1-10 2.8-14.7 1.3-3.5 3.6-7.7 7-13.1 3.2-5 8-11.5 14.7-19.8l2.9-3.5a34.6 34.6 0 0 1-12-10.8l-3-4.9c-3.2-5.3-5.8-10-5.8-16.2 0-2 .3-4 .8-6V98c0-7.5 3-14.3 8.5-19.2 3.7-3.3 8.4-5.5 14.7-6.8l4.4-1 .6-.2a146.6 146.6 0 0 1 14.2-2.2L282 66h.3l8.2-.9h.2l11-1a61.4 61.4 0 0 1 28 3.8 39 39 0 0 1 11.6 8.1 81 81 0 0 0 2.2 2.1h.1c5.6 3 9.8 8 12 14a22.3 22.3 0 0 0 1.3 3.2l.8 2.3.1.3 2.5 6.6c.5 1.3.8 2.7 1 4.1l.6 3.5.2 3v1.3l.1 2v1.3a31 31 0 0 1-5.8 18.8 89.6 89.6 0 0 1-10.2 10.6 110.1 110.1 0 0 0-9.5 10l-2.2 2.5c-.6.8-1.3 1.7-2.2 2.6a54.4 54.4 0 0 1 10.4 10.2 41.5 41.5 0 0 1 10.6 23c.2 1.3.3 2.6.2 4l-.3 4.4a30 30 0 0 1-5.2 18.4c-3.3 4.4-9.8 9.7-21.7 9.7-1.9 0-3.7-.3-5.4-.7l-4.1-1.1-4.8-.1-1 .2c-1.4.4-3 .6-4.4.6l-18 .6h-.6a221.2 221.2 0 0 0-13 1.7l-10.4 2a20.3 20.3 0 0 1-5 .3z"/>
  <path fill="#fff" d="M379.9 195.2l3.3.5h3.1l2.7-.4c-2-3.3-3.2-7.3-3.2-11.5 0-2.2.3-4.7 1.2-9.2.8-5.7 4-10.9 8.6-14.3a23 23 0 0 1-8.2-17.7c0-3.7.8-7.7 2.8-13.5l.3-1.7.4-3.3.5-2.5a26.8 26.8 0 0 1 9.4-15l-1.7-.3a60.7 60.7 0 0 0-9.6-.7l-14.9-1c.3 2 .3 4 0 6l-.5 4-2 37.9c0 3.6-.3 7.4-.8 11.8l-1.7 16.8v1.6c0 4.4.3 6.6.5 7.5l.6 2.5 3.7 1.1 4.3 1 .6.3.6.1zm59.4 14.5zm-51.7 27.6h-4.4a59 59 0 0 1-14-1.9l-1-.2-4.5-1.2-1.2-.3-5.7-1.8c-5.2-1.4-11-3.5-15.6-8a60.6 60.6 0 0 1-13.2-41V178l.8-7.3v-.2l1.1-10.7a79.2 79.2 0 0 0 .6-9.4l.8-14.8 1-21c-1-1.6-1.8-3.6-2.7-5.8A33.5 33.5 0 0 1 327 94l.2-1.7.2-1.5a34.1 34.1 0 0 1 11-21.5c7-5.6 16.2-6.4 24.2-6.4h12l7 .4h.2l9.9.6c4 0 8.4.4 13.2 1.1a395.5 395.5 0 0 0 9.5 1.3l2.3.3.3.1 10.6 1.8h.5l3.5.6 1.2.2 4.8 1 11 2 2 .4c27.2 7.5 30.2 25.9 30.2 33.5a35.7 35.7 0 0 1-11.4 25.8c-3.2 2.8-7 5-11.2 6.6 1.3 1.4 2.5 3 3.8 4.9a32 32 0 0 1 7 20.3 35 35 0 0 1-3.8 16.5 31 31 0 0 1 5.8 18.8c0 8.9-3.5 17.2-9.8 23.3a36 36 0 0 1-15.8 9.5 71.3 71.3 0 0 1-18 1.6h-4.8c-4 0-5.8.2-6.4.3l-1.4.3-.7.1-5.7 1-2.2.3-8.4.6-7.6 1h-2.6z"/>
  <path fill="#fff" d="M564.5 132l.1 1.1.3-1a45.5 45.5 0 0 0 .7-6.5v-2l-.8-2.4c-1.1-.9-2-1.9-3-3l-1.8-2a23 23 0 0 1 3.9 8.9c.4 2 .6 4.3.6 6.9zM554 142.6l10.6-10.6-10.6 10.6zm13.8 6.5l-13.8-6.5 13.8 6.5zM540 179.4zm-53.7-27.7l-.7 4.6v8.7s0 2 1.5 8.3v.2a35.7 35.7 0 0 0 3.2 9c1.1 2.6 1.7 3.4 1.7 3.5a9.9 9.9 0 0 0 2.3 2.3c.1 0 1.5.9 6.1 3-1.1-3-2-6.7-2-10.9l-.1-8.3c0-4 .7-8.4 2.3-13.5 1.1-3.7 2.9-8.4 5.3-14.4l.2-.3 1-2.4.4-.8 1.7-3.7.3-.6 2.3-5.4c.1-.5.3-.9.6-1.3l.1-.4c.5-1 1-1.9 1.7-2.8l3.8-5.2c1.8-2.8 3.3-4.7 4.7-6.3a26.4 26.4 0 0 1 11.8-7.5 91 91 0 0 1-10.5-4.3 10.6 10.6 0 0 0-6.5-.9 37.5 37.5 0 0 0-8 2c-1 .3-1.8.7-2.5 1.2 0 0-1.2.8-3.5 3.5-1 1.1-2.9 3.8-5.6 9.4-2.4 5-5.1 12-8 20.7l-1.9 5.5-.3 1.2a45 45 0 0 0-1.4 6zm75.4 52.2l-75.4-52.2 75.4 52.2zM528 238.3h-12c-1.5 0-3-.1-4.6-.5l-1.8-.4c-8.8-1.6-10.9-2.1-12.4-2.6-1.9-.5-4.5-1.5-11.7-4.7-7.9-3.4-10.9-5-12.7-6.1a47.4 47.4 0 0 1-15.7-15.3 115.9 115.9 0 0 1-8.2-17.3c-.8-2.4-1.6-5.2-2.4-8.6a80.7 80.7 0 0 1-2.6-17.9v-6.3c0-2.6.2-5.3.5-8l.7-5 .1-.6c.7-4 1.6-7.8 2.6-11l.2-.9.4-1.5 2-5.8c3.6-10.6 6.9-19 10-25.6a85.7 85.7 0 0 1 11.3-18 51.8 51.8 0 0 1 25-17.5 95.6 95.6 0 0 1 15.4-3.6 49.9 49.9 0 0 1 29.9 4.6c4 2 6 2.5 6.6 2.6l11.4 2.8.9.2 4.2 1.3 1.4.4a54.9 54.9 0 0 1 25.8 16.8l1.6 1.3c2.7 2 4.9 4.6 6.3 7.7l2 4c0 .3.2.5.3.8a50.2 50.2 0 0 1 4.7 19.5v2.5a72.4 72.4 0 0 1-2.2 17.6l-1.8 6a53.9 53.9 0 0 1-11.5 23.3c-.6.7-1.4 1.5-2.3 2.2a31 31 0 0 1 8.2 22 38 38 0 0 1-2.8 13.5c-4.6 12.2-17 17.1-21 18.7l-.4.2-7 2.6-3 1a104.9 104.9 0 0 1-23.2 4.7l-10.4.9H528z"/>
  <path fill="#fff" d="M738.4 65.6zm0 0zm-91.1 46.5l91-46.5-91 46.5zm108.1 3zm0 0zm-1 1h-.1zm-95 12.6zm0 37.5zm39.5 13.2zm0 .8v-.8.8zm-22.4 6.7zm0 0zm0 0zm44.1 3.3l-44-3.3 44 3.3zm-22.4-1.1l4.4 1h.3l2.8.8.6.1 4.7 1.3v-1.5l-.2-4.7V179l-.2-3-.1-1.8v-6.7l.7-9.4.3-9.6v-1.8l1.4-15.4.6-13.7V116l.3-2.7a82.2 82.2 0 0 1 2.5-12.6l-1.4-.7-2.7-1.5-2.2-1h-.7l-6 .9-2 .1.2 4v15.3l-.5 11.5c0 4.2-.9 8.1-2.5 11.6a22.8 22.8 0 0 1-10.3 10.6l.7.4a22 22 0 0 1 10.6 25.5 27.7 27.7 0 0 0-.8 5l-.8 6.6h.3zm-72.8 6.1l72.8-6.1-72.8 6.1zm.5 0h3l2-.4-.1-2.8v-6.7l.8-8.1v-4.8c0-.8 0-1.7.2-2.5 1-7.7 5.7-15.4 14.3-19a22.6 22.6 0 0 1-9.3-24.6l.3-1.5v-.5l1-13.3v-.3l-4.2-.6-12.6-.7-.2 3.2-.7 7.4-1.5 23-.2 6v6l-.3 3 .3 4.2v2.6l-.4 5.2-.5 14.1v1.8l-.4 4.6.1 1.9 2.6.8.7.2 5 1.8zm2.3.3zm.8 41.4h-2.3a39 39 0 0 1-11-1.3l-8.5-2.8-3.6-1-1-.4-2.1-.9-3.4-1-3-1.2c-2.1-1-3.7-2.2-4.9-3l-3.7-3.2c-5-4.3-8.2-9.9-9.2-16.1-.3-1.9-.3-3.8-.1-5.7l.1-1.2-.5-7v-3.3l.4-6.7v-.8l.6-13.1v-.6l.2-4-.2-4.5v-3l.3-3.5v-4.5l.2-6.4v-.6l.3-6.5v-.3l1.3-17.5v-.5l.7-7.5v-1.4c-.8-2-1.5-4-1.8-6.1l-.4-3c-.3-1.7-.5-3.5-.5-5.2v-1.3A25.8 25.8 0 0 1 607 65.7l6.4 1 4.4.4.7.1 4 .6 14.5.8 1.4.1L648 70c4.7.6 8.5 1.4 11.8 2.4a26 26 0 0 1 19-13.2l10.8-1.7 1.3-.2 2-.2h6l6-1 3-.1h3.4a44.2 44.2 0 0 1 20.6 6l2 1 .6.3 3.7.8A27.9 27.9 0 0 1 760.6 89c.6 3.2 1 6.1 1 8.7 0 4.2-1.1 10.4-5.8 16.6a183 183 0 0 0-.5 3.2l-.2 1.5v1l-.6 13.6v1l-1.4 15.2v.8l-.3 9.6v.7l-.7 9v3.4l.3 3v8.8l.2 4.7v.7l.1 2 .7 7.6.3 4.2c0 8.2-3.6 15.6-9.7 20.3a44 44 0 0 1-13.6 6.5l-1.7.5-2 .5-5.3 1.1-.4.1c-3.7.8-7 1.1-10.3 1.1-2.1 0-4.8-.1-7.9-1l-9.8-2.7-5-1.2-1.8-.5-3.3-1h-.5a24 24 0 0 1-13.3-3.8 26 26 0 0 1-11 7.2 35 35 0 0 1-15.3 3.3l-3.9 1a38 38 0 0 1-9.9 1.3zm-362.9 88.4l.2.5a52 52 0 0 1 4.8-12.7 293 293 0 0 1 12.5-19.5l1.8-2.6 3.6-5.2c3-4.1 6-7.2 9-9.2 3-2 6.5-3 10.6-3 5.9 0 14.4 2 25.5 6.2l4.8 2.3c5 3 8 5.2 8.9 6.7 1 1.5 1.4 4.6 1.4 9.3l-.4 5.8-.1.9-.2 1-1.2 5.4a60.2 60.2 0 0 0-1.4 13.6l-.2 2.1-.2 7.3-1.2 14.7-.4 2.1-.3 3-.2 2.2-.3 2.7-.4 2.7-.2 2.5v4.7l-.1 3 .1 1.9-.5 5.4a13 13 0 0 0 .9 6 30 30 0 0 0 4 7.8l2 2.8c.3.6.5 1.1.5 1.6 0 2.3-2 4-5.8 5.2l-5.4 1.8-1 .3c-2.9.7-4.8 1-5.8 1h-3.2l-3-.8-4.2.8c-4.2 0-7.4-.1-9.7-.4-2.2-.3-4.8-1.2-7.7-2.7-3-1.6-5.3-4-7-7.2a27.8 27.8 0 0 1-2.5-12.8v-24.2l-.2-7.9-.7 1.3-1.7 3-2.4 4.3-1.4 3-.6 1.2-2.4 6.3a19.6 19.6 0 0 1-3.7 6.8c-1 1-3 2-5.8 3a25.2 25.2 0 0 1-9 2l-4.6-.4a28 28 0 0 1-6.8-1.6 32 32 0 0 1-10.8-8.7c-1.5-2.1-3.9-6-7-11.4l-2.5-4.7-.9-2-.8-2.4-1.6 7.3-.5 1.8-1 3.3-.7 2c-.2.5-.4 2-.6 4.5l-.2 2-.3 5-.6 4.3c0 1 .4 2.7 1.4 5.3l3 7.7.5 1c.5.7.2 1.7-.8 3-1 1.1-2.6 2.2-4.6 3l-3.4 1.3H222a75 75 0 0 1-7.5-1h-6.6c-.5.1-1.7-.2-3.7-.9l-7-2.6-3.3-1.6a12.4 12.4 0 0 1-4.2-3.6c-.6-1-1-3.1-1.4-6.1l-.2-2.7-.7-4.5-.9-6.1v-1l.4-7.4-.4-4.4.4-4.2.9-19.7 2.2-15.4.2-1.4.9-8.6.2-.7 1.5-9 1-6.5.4-3.2a26 26 0 0 0-.8-8 7.9 7.9 0 0 0-2.5-3.7c-1.2-1-1.7-1.7-1.7-2.3 0-1.3.6-2.6 1.9-4a13 13 0 0 1 5.4-3.3l2.8-.7h7c1.7.1 3.7.4 5.8.9l1.9.3 9 1.8 6.7 1.4 5 1 5.7 1.4 5 2.1 2.3 1 4.6 1.8a11 11 0 0 1 6 5.6c1.2 2.6 2.2 7 3 13.3v1l1 8.6c.3 3.6.6 6 .8 6.9.2 1 .9 2.8 2 5.5l1.1 3.7zm93.6 4.5l-2.1-2.3c-.1-.4 0-1 .4-1.7l1.5-2.1 4.9-2 4.7-2.4h3l3-.5 7.8-.2 7.7-.7c1.9-.3 3.8 0 5.7.8a37.9 37.9 0 0 1 7.4 4.5 23 23 0 0 0 6.5 3l.9 3.1.8 3.1c0 1-.3 2.7-.8 5.3l-.4 2-.5 3.2-2 10.7-.6 12.4a344 344 0 0 1-.2 14.5c0 2.3.2 4.4.7 6.3l.3 1 1.3 4 .3 1.5a29.6 29.6 0 0 1 .4 3.8c0 3.9-1.6 6-4.8 6.7l-5-1a48.9 48.9 0 0 0-10.3.5c-2.8.4-4.8.7-5.9 1l-3 .3a21 21 0 0 1-3.2-.2c-.7-.1-1.9-.5-3.5-1.2l-1-.5-1.6-.7-3.2-.5c-3.5-.6-5.5-2.7-6-6.2s-.8-14.1-.8-32l.5-8.3v-9l-.1-7a26 26 0 0 0-1.7-4.7c-.5-1.3-.9-2.8-1.1-4.6zm-2.5-26.2a23.2 23.2 0 0 1-3-3.2 5 5 0 0 1-1-1.9l.5-3.8V291c0-4.4 1.2-7.8 3.5-10.1a20 20 0 0 1 9.6-5l7.2-1.5 3.5-.2a41.6 41.6 0 0 1 11.1 1.4l7.3 1.4c1.5.3 3 .4 4.7.4.3 0 .8.1 1.4.4l3.8 2.5c2 1.3 3.9 3.5 5.7 6.6 1.8 3 2.7 6 2.7 8.7 0 2.5-1 5-2.8 7.5-1.9 2.4-4 4.4-6.3 6a97.2 97.2 0 0 1-6.1 3.9c-1.7 1-5 1.4-9.6 1.4a65 65 0 0 1-11.7-1.2l-4.6-1-.5-.2-4.9-2-4-1.3-1.4-.6a71 71 0 0 1-5-4.5zm67.1 83.5l-1-3.3.3-7.2v-1l.2-9.5c0-4.2.7-14 2.1-29.4l.2-2.1.3-3.5 1.6-26.6V299c0-1.7 0-3.2.2-4.6v-3.2l-1.4-6.5-.7-2a26 26 0 0 1-1.2-5.1c0-2.1 2.2-3.6 6.8-4.4l5.4-.7H448c4.1 0 7 .1 9 .4 1.8.3 5.7 1.4 11.5 3.3A706.6 706.6 0 0 0 485 281a47.8 47.8 0 0 1 3 5.6c.7 1.7 1 3 1 3.9 0 1-.3 1.8-1 2.8-.7 1-1.4 1.7-2 2.3-.7.7-1.2 1.8-1.5 3.3l-.7 5.7-.2 1-.7 4.8-2.4 16.6-.4 3.7-.3 3.1-.4 4.2a285.7 285.7 0 0 1-.5 18.9c0 2.7.6 4.1 2 4.4 2.7 0 5.6.1 8.7.5l4.5 1.9 1.8.4 3.4.6c1.3.1 2.8.7 4.6 1.6 1.7 1 4 2.6 6.8 5l2 1.7.5.5c.9 1 1.3 2 1.3 3 0 .8-.2 2.5-.8 5.2-.1.4 0 1.4.3 3.1l1.2 7 .2.6c0 3.8-.4 6-1.4 6.6l-4 1-3.7 1.6-11.5.4-4.4.3-18.7.9-15.2.9a433.3 433.3 0 0 1-10.1.8h-1.8l-3-1.2a43 43 0 0 1-14-10c-.9-1-1.6-2.2-2.2-3.5l-1-3.1zm154.2-78.3a73.7 73.7 0 0 0 .9 13l3.1-5 23.5-22.6 7.8-8.3c5.3-5.8 9-9.7 11.1-11.8 2.2-2.1 4.5-4 7-5.6 2.5-1.6 4.6-2.4 6.2-2.4l4.2.7 3.9.7.9.4 6.8 2a44.2 44.2 0 0 0 6.5 1.6c1 .2 1.9.9 2.6 2a11 11 0 0 1 1.3 4.4 113.2 113.2 0 0 0 .6 5.4c0 1-.3 1.8-.7 2.3-.5.6-1.6 1.3-3.3 2.1-1.6 1-3.1 2.1-4.3 3.6a105 105 0 0 0-3.3 4.2l-4.3 6-4.4 6-9.4 10.6-2 2-3.1 4.8a11 11 0 0 0-2.1 5.2c0 1.6 1.2 4.6 3.7 9.1l3.6 7.6 6.3 13.2.4.7 4 5.3 4 6 1.9 1.7 3.1 2.2c1.3.8 2 2.8 2 5.8l.2 1.7v1.5c0 1.4-.5 2.7-1.3 4a29 29 0 0 1-10.7 8.3 52.8 52.8 0 0 1-16 2.7 14 14 0 0 1-6.3-1.2l-.5-.2-2.8-2a112 112 0 0 0-6.5-3c-2-.9-4.2-2.4-6.7-4.8a67 67 0 0 1-5.3-5.2l-2.6-2.8-2.5-3.2-3.5-4.3-3.5-4.2-.9-1.3-.3-.5-3.3-5-7.2-9.7a59 59 0 0 0-.9 4.5l-.1 6v3.2l-1 7.1-.4 6c0 6.3.4 10.4 1.4 12.2l2.5 4.4a13 13 0 0 0 1.8 2.4c.7.5.6 1.3-.4 2.3a17.6 17.6 0 0 1-8.5 4.4h-2.6l-5.3-.2-.7-.2-8.2.4h-3.8l-3.5-1-19-5.8c-4-1.6-5.8-6.3-5.8-14.2l-.6-6.1v-.6l.7-9v-1.1l.6-17 .5-9V340l.3-3.6c.2-.5.2-1.8.2-4 0-2.1 0-3.8.2-5.1a219.7 219.7 0 0 0-.2-12.6v-2.1l-.3-7-.2-2.1v-.7l.2-4.6V297c-.4-4.1-.7-6.6-1-7.5-.4-.8-1.7-2-4-3.5a49.5 49.5 0 0 1-2.8-8.2c0-1.7 1.8-3.3 5.3-4.8s7.4-2.3 11.7-2.3h2.1l2.5.2a130 130 0 0 1 22.2 4.9l3.8.5 3.9.7 3.1.7 1.6.4c2 .6 3.3 1.3 4 2.2.7 1 1.6 3.2 2.8 6.7l2.1 6.6c0 1.5-.3 3.7-1 6.4a887 887 0 0 0-2 8.8z"/>
  <path fill="#dd3135" d="M108 178a58.3 58.3 0 0 1-2.2-13v-6.4c0-1.7.1-3.5.4-5.2l.3-2.5.4-2.4c.5-3.4 1.2-6.4 2-9l.4-1.4 2-5.7c3.2-9.6 6.2-17.3 9-23.1a66.4 66.4 0 0 1 8.4-13.7 31 31 0 0 1 15.5-11.1 77.3 77.3 0 0 1 11.7-2.8c1.8-.2 3.6-.4 5.5-.4 4.2 0 8.4 1 12.7 3.1 4.2 2 7.8 3.4 10.6 4.1l11.5 2.8 4.2 1.2a35.5 35.5 0 0 1 18.7 12.6l3.5 2.6 2 4c1.9 4.7 2.9 8.5 2.9 11.4v2.5a53.9 53.9 0 0 1-1.2 11.5l-2 6.3a38 38 0 0 1-6.5 14.8 16 16 0 0 1-9.8 4.4c-4.3.6-7 1-8.5 1s-3.2-.5-5-1.3a9 9 0 0 1-4.4-4.2c-1-2-2.4-6.4-3.9-13.1l-1-7.2-.4-5c0-1.6 0-2.8-.2-3.6-.2-1-.7-1.4-1.6-1.6a4 4 0 0 0-2.2 0c-.5.3-1 .8-1.7 1.5-.6.7-1.6 2-2.8 4l-4 5.6-.2.3-2.3 5.5-.2.5-2.3 4.7-1 2.4a155 155 0 0 0-4.7 12.6 24 24 0 0 0-1.4 7.4v7.8c.1 2.6.8 4.6 2.2 6a9 9 0 0 0 5.6 2.8c2.3.3 6.5.5 12.3.5 2-.2 4-.6 5.8-1.2 2-.6 4.4-1.5 7.4-2.8 3-1.3 5.4-2 7.2-2h2.1l6 2.7 3 1.2 1 .4c3.4 1.2 5 4.2 5 9.1 0 1.7-.4 3.7-1.3 6.2-1 2.4-4 4.7-9.3 6.8l-7 2.7h-.5a85 85 0 0 1-20.1 4.3l-4.2.4-6.3.5h-11.9l-2.3-.5c-5.9-1-9.5-1.8-10.6-2.1-1.2-.4-4.3-1.6-9.4-3.9-5-2.2-8.5-3.8-10.2-4.9a30.1 30.1 0 0 1-12.3-15.2 55.9 55.9 0 0 1-4.5-12.9zm122.1 13v-.6c0-2.5.4-4.8 1.3-7s2.7-5.5 5.3-9.7c2.7-4.3 7.1-10.2 13.2-17.7l12.2-14.7c2-2.2 4.1-4.3 6.5-6.4 2.3-2.1 4.3-4.3 6-6.5 1.8-2.2 2.4-3.6 1.7-4l-1.6-.4-7.7-.9-8.7-.8-5.8.3a14 14 0 0 1-10-4.9l-3-4.9c-1.8-3-2.8-4.8-2.8-5.4 0-.6.4-1.9 1.1-3.9l-.3-2.3v-3c0-1.6.4-2.8 1.4-3.7a13 13 0 0 1 5.5-2.1l4.6-1a122.8 122.8 0 0 1 12.6-2l8.5-1 14.4-1.8 8.2-.9 11.2-1c3-.4 5.2-.4 6.4-.2 5.8.8 9.4 1.6 11 2.3 1.5.7 3.4 2 5.5 4 2 2.1 3.5 3.4 4.3 4l2.8 1.7a4 4 0 0 1 2 2.5l1.5 3.7 1 2.2 1.1 3.4 1.3 3.3.5 3.5v2l.2 2.5a10 10 0 0 1-1.7 6.2 87.6 87.6 0 0 1-7.9 8c-4.1 4-7.6 7.7-10.5 11.2l-1.8 1.9-1.6 2c0 .2-1.3 1.4-3.6 3.8l-3 4.2-7.7 9.4c-1 1-1.7 2-2.4 3.2a9.7 9.7 0 0 1-1.8 2.8c-.6.5-1.6 1.3-3 2.2l-.7 1c0 .9.2 1.4 1 1.6h2l4-.7c2.4 0 4.5.2 6.5.4s4.2.9 6.5 2c2.4 1 4.3 2 5.6 3 1.2 1 3 2.8 5.2 5.6 2.2 2.7 3.7 5 4.5 6.9.9 1.8 1.4 3.7 1.6 5.6l-.3 5c0 3.5-.4 5.8-1 6.7-.8 1-2.5 1.4-5.2 1.4l-6.4-1.8-6.7-.1h-3.6l-3.5.8-18 .6c-1.8 0-4 .1-7 .5l-9.6 1.5-10.7 2a18.5 18.5 0 0 1-10-2.3c-1-.7-2.5-2-4.5-3.8a56.2 56.2 0 0 0-9.5-6.9 12.7 12.7 0 0 1-4.3-3.6 16 16 0 0 1-1.8-5.3l-.5-3.5zM349 101.3c-.8-2-1.2-3.7-1.2-5l.1-1.8c.8-4.7 2-7.6 3.5-8.9 1.5-1.2 5.3-1.8 11.2-1.8h11l6.8.3 10.5.8c3.3 0 7 .2 11.1.8l9.2 1.3 2.3.3 10.1 1.8 1.4.1 3.5.6 5 1 10.6 2 1 .1c10 2.7 14.9 7.2 14.9 13.4 0 1.9-.4 3.7-1.2 5.6-.7 1.9-1.8 3.4-3.1 4.6a16 16 0 0 1-5.2 2.9 32 32 0 0 1-6 1.5c-2 .3-6 .5-12.1.5l-2.7.2-8 .7c-4.4 0-7 .2-8 .7-.8.4-1.6 1.7-2.1 4l-.6 3.8-.7 3.6a30 30 0 0 0-2 8.2c0 2 2.1 3 6.6 3h5.6a25.4 25.4 0 0 1 10.7 1.4l1.7.7 3.3 1.2a37 37 0 0 1 4.7 2.3c1.2.7 2.5 2.1 4 4.3a23 23 0 0 1 2.8 4.8 13.8 13.8 0 0 1-1.7 11.6 9.5 9.5 0 0 1-5.3 4l-23.4-.3h-1.2l-4 .3c-3 .4-4.6 1-4.6 1.8-.6 3.2-.8 5.3-.8 6 0 1 .4 1.5 1.4 1.5l3.6-1h4.7c2 0 3.6 0 4.9.3 1.2.3 2 .4 2.7.4l5.4 1.4 1.6.4 3.6.8 3.5 1h.7l2.6.5c1.2.2 3 .9 5.3 2.2 2.3 1.4 3.5 4 3.5 8 0 3.4-1.2 6.2-3.5 8.4a16 16 0 0 1-6.7 4.3c-2.2.6-6.4.9-12.5.9h-5c-4.4 0-7.7.2-10 .6l-2 .4-5.8 1-8.9.7-8.2 1h-4.4a39 39 0 0 1-8.4-1l-1.2-.4-4.9-1.2-6.1-2c-3.5-.9-5.7-1.8-6.6-2.8a40 40 0 0 1-6.4-15.2 67 67 0 0 1-.8-11.2v-2.6l.7-7.3 1.1-10.7c.4-3.8.6-7.3.6-10.3l.6-8.4.3-6.6 1.2-24.2.7-4.9-3.1-2.8c-.6-.5-1.2-1.8-2-3.6zM466.8 178a63 63 0 0 1-2.1-13v-6.4c0-1.7.1-3.5.3-5.2l.4-2.5.3-2.4c.6-3.4 1.3-6.4 2.1-9l.4-1.4 2-5.7c3.2-9.6 6.2-17.3 9-23.1a66.3 66.3 0 0 1 8.4-13.7 31.1 31.1 0 0 1 15.5-11.1 77.5 77.5 0 0 1 11.7-2.8c1.8-.2 3.6-.4 5.5-.4 4.2 0 8.4 1 12.7 3.1a57 57 0 0 0 10.6 4.1l11.5 2.8 4.2 1.2a35.5 35.5 0 0 1 18.7 12.6l3.5 2.6 1.9 4c2 4.7 3 8.5 3 11.4v2.5A51.8 51.8 0 0 1 585 137l-1.9 6.3a38 38 0 0 1-6.5 14.8 16 16 0 0 1-9.8 4.4c-4.3.6-7.1 1-8.5 1-1.5 0-3.2-.5-5-1.3a8.9 8.9 0 0 1-4.4-4.2c-1-2-2.4-6.4-3.9-13.1l-1-7.2-.4-5c0-1.6 0-2.8-.3-3.6-.1-1-.7-1.4-1.5-1.6a4 4 0 0 0-2.2 0c-.5.3-1 .8-1.7 1.5-.6.7-1.6 2-2.9 4l-4 5.6-.2.3-2.2 5.5-.2.5-2.3 4.7-1 2.4c-2.2 5.4-3.8 9.6-4.7 12.6a24 24 0 0 0-1.4 7.4v7.8a9 9 0 0 0 2.1 6 9.1 9.1 0 0 0 5.6 2.8c2.4.3 6.5.5 12.4.5 2-.2 3.9-.6 5.8-1.2 2-.6 4.4-1.5 7.4-2.8 3-1.3 5.4-2 7.2-2h2.1l6 2.7 3 1.2 1 .4c3.4 1.2 5 4.2 5 9.1 0 1.7-.4 3.7-1.3 6.2-1 2.4-4 4.7-9.3 6.8l-7 2.7h-.5a85 85 0 0 1-20.1 4.3l-4.2.4-6.3.5H516l-2.3-.5c-6-1-9.5-1.8-10.6-2.1-1.2-.4-4.3-1.6-9.4-3.9-5-2.2-8.5-3.8-10.2-4.9a30 30 0 0 1-12.3-15.2 56.8 56.8 0 0 1-4.5-12.9zm130.4 21.5l-.7-9 .5-6.3v-2l.5-13.2.2-2.6.2-2.8-.3-5.8.3-4.4v-4.7l.2-6.5.3-6.4 1.2-17.5a2729 2729 0 0 0 1-12.3c0-1.9-.2-3.1-.3-3.8-.2-.7-.8-2-1.9-3.9l-.5-3.7-.2-1.5v-1.3c0-3.7 2-5.6 6.2-5.6l6.8 1 4.9.6 5 .7 15.2.9 9.6 1.2c5.4.7 9 1.6 10.9 2.8 1.8 1.2 3 3.3 3.5 6.3l.7 5v5.3l-1.6 2.6-1 13.3v.7l-.6 3.3-.3 2.3c0 1.3 1.1 2 3.5 2l8.9-1h3.1c1.6.2 3 .2 4.2.2 1.5 0 2.5-.4 3-1.3.3-.8.5-2 .5-3.4l.6-11.9V104l-.6-8.2-.7-1.2V92l-.6-2.3-.6-1.5c-.5-1.4-.7-2.7-.7-3.7 0-2.4 1.4-4 4.2-4.7l1.2-.2 3.2-.5 6.6-1 2-.2h5.5l7.6-1h3.4c2.6 0 6.1 1 10.5 3.2L725 82l.9.3a8 8 0 0 0 3.1 1.2l5 1.1c1.7.3 3 1.1 4 2.4 1.1 1.2 1.8 3 2 5.3.5 2.2.7 4 .7 5.4 0 1.6-.7 3.3-2.2 5a15.3 15.3 0 0 0-3 7.3l-.9 5.2-.2 1.7-.2 1.6-.1 5-.4 9.3-1.4 16v1l-.3 9.6-.7 9.8v5l.3 3.8v7.4l.2 5v2l.2 1.9.7 7.8.2 2.1c0 1.8-.5 3-1.5 3.8a26 26 0 0 1-7 3l-1.7.6-1.7.3-4 .9a32.1 32.1 0 0 1-8.3.5l-8-2.2-2.8-.7-5.3-1.3-5.4-1.7-2-.3h-3.6a11 11 0 0 1-3.6-2c-1.9-1.5-2.8-3-2.8-4.5l.3-3.4.2-.5.7-4.4.3-1.7.6-4.7.7-5.3.1-1.2c0-1.7.5-4.3 1.4-7.7.3-.8-.2-1.4-1.4-1.9-.3-.3-.8-.5-1.5-.5h-4.7l-14 .2c-3.4 0-5.2 1-5.5 3v5.7l-.8 9v4.8c0 3.6.6 6.3 1.9 8 1.3 1.8 2 3.7 2 5.6 0 3-1.5 5.1-4.5 6.2l-5.5 1.8c-.7.2-2.6.3-5.5.3l-6.4 1.7c-1.3.3-2.8.5-4.6.5h-2.3c-2.4 0-4.3-.2-5.6-.5l-7.3-2.5-3.8-1.2-2.8-1-4-1.3-1.2-.8-2.8-2.3a6.5 6.5 0 0 1-2.4-3.9l.4-3.1z"/>
</svg>
