<svg xmlns="http://www.w3.org/2000/svg" viewBox="0 0 1256 147">
  <path fill="#FFF" d="M494 1c103.2-2 220.2 35.2 267 87 56.2-11.2 80.8-4.9 117 23v-2c18.7-15.3 31.7-31.2 57-41 65.8-25.6 140.7 7.5 182 35l36 28h43c22.3 3.8 41.1 10.3 60 16v4c-41.1.2-66.4 17-97 24-14 3.2-20.4-8-29-7-14 1.7-31.5 13.7-49 17a159.5 159.5 0 0 1-59-2l-24-7-73 18-91 9c-51.7 8-140.6-9.6-179-21l-41-14-26 12c-29.7 9-72 3-88-14-44 18-122.8 23.4-181 12l-51-13-25 6c-22.4 4.8-54.3 10-81 6l-74-7-88-14v-11c30.9-3.7 56.5-18.4 90-24 45.3-7.6 82.2 10.2 118 14 43.3-57.6 117.6-95.9 195-119l59-12 32-3z"/>
</svg>
