<svg xmlns="http://www.w3.org/2000/svg" viewBox="0 0 173.696 110.251">
  <path fill="#a7b4b5" d="M99.12 49.8s11.517 24.927 15.801 28.752c4.285 3.824 3.688 18.153 3.688 18.153s5.573 1.801 7.763.535c0 0 2.909-30.366 3.423-41.416.514-11.049-15.527-30.314-30.675-6.024z"/>
  <path d="M118.609 96.705s-2.091 4.235-2.24 6.001c-.149 1.766 2.24.211 2.24.211s0 2.38 1.492 2.207c1.493-.174 5.674-1.475 6.271-2.418.597-.943.051-6.001.051-6.001s-5.127-1.394-7.814 0z"/>
  <path fill="#e2f0f3" d="M131.874 18.003s7.67-4.407 12.121-1.432c4.451 2.974 5.725 12.253 5.407 19.564-.319 7.312.637 30.576 14.978 35.357 0 0 6.533-.478 8.764 2.868 2.231 3.346-3.027 2.549-3.027 2.549s2.708 6.215.159 6.693c-2.55.478-3.506-3.506-3.506-3.506s-.796 6.056-3.665 4.621c-2.868-1.434-1.115-6.533-1.593-7.489-.478-.956-15.891-4.324-17.831-29.306-1.939-24.982-5.274-32.417-11.807-29.919z"/>
  <path fill="#020006" d="M149.358 38.898c-.009.011-2.346 2.803-2.028 6.302.319 3.505-.823 5.895-.81 7.33.013 1.434 3.24 6.37 4.316 5.18.321-.356.678-.848 1.021-1.363-1.958-6.274-2.466-13.016-2.499-17.449zm.181 28.267c1.095-.086 2.417.265 3.246 2.06.567 1.227.849 2.184.91 2.883a26.438 26.438 0 0 1-4.156-4.943z"/>
  <path fill="#a7b4b5" d="M56.994 65.239s6.374 20.771 6.798 24.522c.425 3.75 1.063 9.367 1.7 9.533.638.166 5.099 1.533 6.374 0 0 0 .637-13.644 0-16.83-.637-3.187-10.307-21.655-14.872-17.225z"/>
  <path d="M64.942 99.294s-2.053 5.031-2.053 5.839c0 .807 2.603.503 2.603.503s-.406 2.217 1.523 1.898c1.93-.319 4.515-1.966 5.134-2.736.62-.77-.283-5.504-.283-5.504s-5.828.524-6.924 0z"/>
  <path fill="#cad8da" d="M130.652 87.165c-.689-.078-1.356-.555-1.874-1.034 2.97-4.082 3.332-8.051-1.096-13.867-8.126-10.676-22.308 3.983-22.308 3.983s-1.766 6.155 1.836 11.245v.001s-.402 1.258-1.252 1.683c-.849.425-2.337 1.487-.531 3.611 1.806 2.125 3.151.436 3.718-1.214.568-1.65 1.179-1.288 1.179-1.288l-.001-.004c.847.462 1.814.82 2.926 1.039-.044.561-.16 1.162-.45 1.539-.668.867-.531 2.821 1.764 3.273 2.296.452 3.433-1.4 2.857-2.57-.361-.733-.583-1.383-.63-1.999a20.062 20.062 0 0 0 4.182-.545c.303.556.59 1.154.635 1.515.099.811.557 3.639 2.634 2.606 2.078-1.033 1.938-3.071.556-3.921-.415-.256-.772-.672-1.078-1.124a13.288 13.288 0 0 0 3.199-1.975c.149.263.309.568.475.931.716 1.56.988 3.432 3.057 2.028 2.069-1.405 1.657-3.747.202-3.913z"/>
  <path fill="#e2f0f3" d="M40.74 50.559c.671 1.13 11.352 9.602 15.077 14.68 3.726 5.079 4.789 13.365 13.393 15.914 8.605 2.55 33.357 6.015 39.093 3.784 5.736-2.231 14.341-7.967 20.715-7.33 6.374.638 12.11-9.201 14.341-16.213 2.231-7.011 6.374-43.235-5.418-46.316-11.791-3.081-18.165-4.568-23.902-6.055-5.736-1.487-32.085-4.314-45.572 0C54.979 13.337 45.521 6.73 45.521 6.73S29.586 31.756 40.74 50.559z"/>
  <path fill="#020006" d="M37.165 29.692c1.844 2.746 5.467 7.237 10.292 8.877 7.147 2.429 13.998.676 18.779.836 4.78.159 10.835-.108 10.357-8.34-.478-8.232-.159-16.359 5.896-13.331 6.055 3.027 11.181 3.505 10.849-1.912-.304-4.956 9.003-2.18 9.738-8.381-10.53-.988-25.502-1.331-34.609 1.582C54.979 13.337 45.521 6.73 45.521 6.73s-6.667 10.475-8.356 22.962zm35.923 24.532c-3.563-2.192-.956-8.766 1.912-9.163 3.949-.548 2.296-4.689 7.489-5.193 4.78-.463 9.083 3.647 7.967 8.284-1.115 4.638-4.143 6.391-7.967 5.435-3.824-.957-5.258 3.186-9.401.637zm35.056-33.778c2.922-.155 6.533-3.084 4.78-5.368-1.753-2.284-6.528-3.284-8.443-1.031-1.914 2.253-2.393 6.721 3.663 6.399zm25.621-6.452c-.801 1.064-1.421 2.81.033 5.174 2.55 4.143 2.057 9.36-3.353 9.859-5.411.498-6.845-2.211-8.916-3.007-2.072-.797-7.661-1.753-9.487 1.593-1.827 3.346-2.624 3.876-5.492 3.452-2.868-.424-7.977 2.763-3.351 7.065 4.626 4.302 7.016-.106 7.653 4.17.638 4.275 7.171 8.616 10.836 6.446 3.665-2.171 8.764 2.769 12.11 2.61 3.347-.16 9.242-.954 10.198 4.861.081.494.162.945.243 1.359 2.131-11.636 4.037-39.798-6.298-42.498a1171.47 1171.47 0 0 0-4.176-1.084z"/>
  <path fill="#cad8da" d="M46.371 52.312s5.074 4.621 8.911 6.32c3.836 1.7 12.346-6.32 12.346-6.32s4.188 1.269 3.262 6.557c-.925 5.287-1.149 12.724-.299 13.998.85 1.275 11.898 6.249 14.235 6.205 2.337-.043 20.969-3.723 24.889-6.842 3.92-3.119 12.198-7.75 16.069-9.08 3.871-1.331 18.181-2.308 18.891-8.223.051-.425.094-.718.131-.901-.461 3.313-.994 5.944-1.447 7.368-2.231 7.012-7.967 16.851-14.341 16.213-6.374-.637-14.979 5.099-20.715 7.33-5.736 2.231-30.488-1.234-39.093-3.784-8.604-2.549-9.667-10.835-13.393-15.914-2.643-3.603-8.787-8.914-12.374-12.099.643-.523 1.594-.821 2.928-.828z"/>
  <path fill="#e2f0f3" d="M107.158 80.501c-1.781 1.406-.059 5.8 5.29 8.263 3.45 1.59 11.6-.104 13.643-3.111 2.044-3.007 3.412-4.588 2.251-8.088-1.161-3.5-3.815-5.418-5.619-4.93-1.703.46-2.298 2.553-4.76 5.21-2.462 2.656-8.622.932-10.805 2.656z"/>
  <path fill="#f6b5a7" d="M20.744 9.023s-5.661.319-7.439-4.356c0 0-2.261 10.939 8.71 11.844 0 0 1.147-4.832-1.271-7.488z"/>
  <path d="M19.388 15.078S7.859 25.433 13.305 28.251c5.446 2.817 9.483-2.55 9.907-7.861.425-5.312-.765-8.401-3.824-5.312z"/>
  <path fill="#e2f0f3" d="M15.989 31.225s6.374-10.411 6.586-13.597c0 0-4.462-7.649 0-12.111 4.462-4.461 18.909-9.136 27.62 0 8.711 9.136 3.824 14.66 2.762 17.422-1.062 2.762-5.312 11.473-5.312 14.235 0 2.762-2.762 7.224-3.399 7.436-.637.213-41.642-.85-28.257-13.385z"/>
  <path d="M40.9 21.956c0 1.276-.642 2.311-1.434 2.311-.792 0-1.434-1.035-1.434-2.311s.642-2.31 1.434-2.31c.792 0 1.434 1.034 1.434 2.31zm-11.632 0c0 1.276-.642 2.311-1.435 2.311-.792 0-1.434-1.035-1.434-2.311s.642-2.31 1.434-2.31c.793 0 1.435 1.034 1.435 2.31z"/>
  <path fill="#f6b5a7" d="M.054 43.335c-.662-5.521 4.569-14.672 26.345-11.685 21.777 2.987 26.558 9.348 23.371 18.272-3.187 8.923-12.916 16.784-24.411 15.084C13.864 63.307 1.329 53.958.054 43.335z"/>
  <path fill="#ce8c81" d="M.364 45.065c.133.17 8.666 11.04 15.2 13.886 6.586 2.868 23.004 3.474 28.528-5.237 5.524-8.711-1.554-18.114-1.554-18.114l.014.003c7.888 3.439 9.369 8.295 7.218 14.319-3.187 8.923-12.916 16.784-24.411 15.084C14.929 63.465 3.643 55.625.689 46.25c-.109-.372-.213-.75-.313-1.135l-.012-.05z"/>
  <path fill="#673c35" d="M31.371 43.82s-1.553-5.923 2.69-5.65c4.243.274 5.615 5.278 1.451 6.891 0 0 2.947.083 3.755-3.168.808-3.251-1.99-4.97-3.782-5.399-1.791-.43-8.336.872-4.114 7.326zm-19.735 1.184s-5.251-3.149-2.026-5.92c3.225-2.771 7.705-.152 5.854 3.912 0 0 2.166-2.001.471-4.89-1.696-2.889-4.898-2.162-6.479-1.217-1.581.946-5.35 6.452 2.18 8.115zm4.947 7.945s2.653 5.737 6.713 5.259c4.059-.478 6.681-5.896 6.681-5.896s-1.371 7.967-6.697 7.808c-5.326-.16-6.697-7.171-6.697-7.171z"/>
  <path fill="#020006" d="M29.268 1.678S24.69 4.544 25.332 6.73c.642 2.187 6.166 3.037 7.016 5.586.85 2.55 2.864 3.581 4.43 2.762 1.566-.819 4.925-4.461 7.423-6.055 2.498-1.594 6.295-3.552 4.593-4.808s-9.435-7.013-19.526-2.537z"/>
  <path d="M53.382 12.316s14.447 8.711 13.597 14.66c-.849 5.949-2.124 7.011-4.461 7.648-2.337.638-14.791-15.44-9.136-22.308z"/>
  <path fill="#f6b5a7" d="M50.664 8.279s9.304-1.274 10.366-5.311c0 0 2.125 11.898-7.861 12.11 0 0-3.736-1.275-2.505-6.799z"/>
  <path fill="#e2f0f3" d="M112.448 56.17s12.787 14.307 17.359 18.131c2.689 6.466 2.398 26.688 2.398 26.688s5.949 1.801 8.286.535c0 0 3.044-29.924 3.593-40.973 1.836-18.278-13.154 7.2-31.636-4.381z"/>
  <path d="M132.205 100.989s-2.231 4.235-2.39 6.001c-.16 1.766 2.39.211 2.39.211s0 2.38 1.593 2.207c1.594-.174 6.055-1.475 6.693-2.418.637-.943.054-6.001.054-6.001s-5.472-1.394-8.34 0z"/>
  <path fill="#e2f0f3" d="M72.149 65.892s-.708 2.124 2.479 6.373c3.187 4.25 5.312 26.041 5.312 28.743 0 0 5.948 2.397 9.135 0 0 0-.425-13.87.85-18.544 1.275-4.675 3.612-8.286 3.399-12.536-.212-4.249-17.988-24.759-21.175-4.036z"/>
  <path d="M79.94 101.008s-2.55 4.773-2.869 7.323h2.869s-.319 2.071 1.593 1.912c1.912-.16 7.011-.956 7.649-1.912 0 0-.111-7.225-.131-8.317 0 0-5.925 2.116-9.111.994z"/>
</svg>
