<svg xmlns="http://www.w3.org/2000/svg" viewBox="0 0 394.9 394.9">
  <path fill="#EF3E43" d="M249.5 7l1.5.4-1.5-.4zm4.6 1.3c.5.2 1 .4 1.7.5l-1.8-.5zm4.5 1.4l1.7.6-1.7-.6zm4.6 1.6l1.6.6-1.6-.6zm4.7 1.7l1.2.5-1.2-.5zm5.5 2.2l1 .4-1-.4zm4.3 1.8l1.5.7-1.5-.7zm4.2 2l1.6.7-1.6-.8zm4.1 2zm4.2 2.1l1.5.8-1.5-.8zm4.5 2.5l1 .6-1-.6zm4.8 2.8l1.4.8-1.4-.8zm3.9 2.4zm3.7 2.4l1.7 1.2-1.7-1.2zm3.8 2.6l1.6 1.2-1.6-1.2zm3.7 2.7l1.5 1.1-1.5-1.1zm4 3l2 1.6-2-1.6zm4.3 3.5l1.7 1.4-1.7-1.4zm3.4 2.8l1.7 1.5-1.7-1.5zm3.3 3l1.7 1.5-1.7-1.5zm3.2 3l1.8 1.6-1.8-1.7zm3.2 3l1.7 1.7-1.7-1.7zm2.6 2.6zm4.9 5.1l1.7 2-1.7-2zm2.9 3.3l1.7 2-1.7-2zm2.8 3.3zm2.6 3.3l1.8 2.2-1.8-2.2zm2.4 3zm6.7 9.3zm2.3 3.5l1.7 2.6-1.7-2.6zm2.3 3.6l1.6 2.7-1.6-2.7zm2 3.4zM375 111zm1.8 3.8zm1.7 3.7zm7 18.6zm1.3 4zm5.5 23.6zm.6 4zm2 24.7a197.4 197.4 0 0 1-352 126.8l1.2 1.4 135.5-124.1H395v-4.2zM42 319l-1.2-1.6L42 319zm-2.2-2.9l-1.7-2.3 1.7 2.3zm-2.7-3.8l-1-1.5 1 1.5zm-2.1-3l-1-1.4 1 1.4zm-2.6-3.8l-.9-1.3.9 1.3zm-2-3.1l-.7-1.2.7 1.2zm-2.4-4l-.6-1 .6 1zm-1.8-3.1l-.6-1 .6 1zm-2.3-4l-.3-.6.3.6zm-1.7-3.3l-.5-.8.5.8z"/>
  <path fill="#FFF" fill-rule="evenodd" d="M179.5 197.5H395A197.4 197.4 0 0 0 66.5 49.8l113.8 147-.8.7zM63.7 52.2zm-4 3.9zM53 62.9zm-3.5 3.8l-2 2.4 2-2.4zm-3.4 4l-1.8 2.1 1.8-2.2zm-2.9 3.5l-1.6 2 1.6-2zm-3 4l-1.6 2 1.5-2zm-3.1 4L36 83.9l1-1.5zm-2.8 4l-1 1.6 1-1.6zm-2.7 4l-1 1.6 1-1.5zM29 94.7l-.7 1.1.7-1.1zm-2.5 4.2l-.6 1.2.6-1.2zm-2.4 4.3l-.5.9.5-1zm-2.4 4.5c0 .3-.2.5-.4.8l.4-.8zM5.8 150zm-.7 3l-.6 2.8.6-2.8zm-.6 3l-.6 2.6.6-2.7zm-.7 3l-.4 2.4.4-2.4zm-.5 3l-.4 2.2c0-.7.2-1.4.4-2.1zm-.6 3.3l-.3 1.5.3-1.6zm-.5 3.2z" clip-rule="evenodd"/>
  <path fill="#005B95" fill-rule="evenodd" d="M66.4 49.8l114 147L44 321.5A197 197 0 0 1 66.4 49.8z" clip-rule="evenodd"/>
</svg>
