<svg xmlns="http://www.w3.org/2000/svg" width="1676" height="273">
  <path fill="#278F43" fill-rule="evenodd" d="M1256 151v5l-88 14c-25 2-57 8-108 6-36-2-43-4-69-11l-33 9-58 8c-34 6-78 2-107-4-10-2-33-13-38-10-20 8-42 21-74 15-13-3-29-15-39-15l-45 15c-33 9-68 12-104 18-58 9-140 0-188-12l-47-13c-16-2-45 15-75 10-23-4-40-14-60-18-5 5-15 9-26 7-13-3-20-8-34-13-16-6-40-11-63-11v-4c31-12 48-17 98-16l-10 15 26-25c49-38 135-84 217-49 30 13 38 36 59 56l-8-21c46-32 85-32 136-6l-20-15 3-4 40-27c23-14 49-24 75-34l74-17 36-3c153-3 241 59 319 130l-3 2-19 10c58-16 127-32 192-10l41 12"/>
</svg>
