<svg xmlns="http://www.w3.org/2000/svg" width="1674.62" height="274.66">
  <path fill="#FFF" fill-rule="evenodd" d="M494 1C597.2-.92 714.24 36.19 761 88c56.24-11.18 80.77-4.86 117 23v-2c18.7-15.27 31.71-31.16 57-41 65.85-25.63 140.68 7.48 182 35l36 28h43c22.29 3.81 41.1 10.25 60 16v4c-41.14.23-66.37 17.03-97 24-14.06 3.2-20.44-8.06-29-7-14.02 1.74-31.51 13.66-49 17-17.88 3.41-43.34 1.86-59-2l-24-7-73 18-91 9c-51.74 8.07-140.58-9.56-179-21l-41-14-26 12c-29.7 9.04-71.94 2.96-88-14-44 18-122.82 23.35-181 12l-51-13-25 6c-22.45 4.85-54.27 10.06-81 6l-74-7-88-14v-11c30.87-3.67 56.5-18.39 90-24 45.26-7.58 82.17 10.23 118 14 43.3-57.63 117.59-95.88 195-119l59-12 32-3z"/>
</svg>
